<?xml version="1.0" encoding="iso-8859-1"?>
<!-- Generator: Adobe Illustrator 19.0.0, SVG Export Plug-In . SVG Version: 6.00 Build 0)  -->
<svg version="1.1" id="Layer_1" xmlns="http://www.w3.org/2000/svg" xmlns:xlink="http://www.w3.org/1999/xlink" x="0px" y="0px"
	 viewBox="0 0 510.913 510.913" style="enable-background:new 0 0 510.913 510.913;" xml:space="preserve">
<g transform="translate(1 1)">
	<path style="fill:#FFDD09;" d="M490.34,434.999l-87.13-86.232c-3.593-3.593-8.982-3.593-12.575,0l0,0
		c-3.593,3.593-8.982,3.593-12.575,0l-49.404-47.607c-7.186,9.881-16.168,17.965-25.151,26.049l48.505,46.709
		c3.593,3.593,3.593,8.982,0,12.575c-3.593,3.593-3.593,8.982,0,12.575l88.028,88.028c14.372,14.372,38.625,14.372,52.098-1.797
		C505.611,471.827,503.814,449.371,490.34,434.999"/>
	<path style="fill:#FD9808;" d="M367.281,190.676c0,98.807-80.842,179.649-179.649,179.649S7.982,289.483,7.982,190.676
		S88.825,11.027,187.632,11.027S367.281,91.869,367.281,190.676"/>
	<path style="fill:#FFDD09;" d="M340.333,190.676c0,98.807-74.554,179.649-166.175,179.649S7.982,289.483,7.982,190.676
		S82.537,11.027,174.158,11.027S340.333,91.869,340.333,190.676"/>
	<path style="fill:#FFFFFF;" d="M187.632,11.027c2.695,0,4.491,0,7.186,0C105.891,15.518,34.93,93.665,34.93,190.676
		s70.961,175.158,159.888,179.649c-2.695,0-4.491,0-7.186,0c-98.807,0-179.649-80.842-179.649-179.649S88.825,11.027,187.632,11.027
		"/>
	<g>
		<path style="fill:#54C9FD;" d="M211.884,83.785c-13.474-12.575-35.93-12.575-49.404,0c-9.881,9.881-19.761,22.456-19.761,35.032
			c0,0,3.593,44.912,44.912,44.912s44.912-44.912,44.912-44.912C232.544,106.241,222.663,93.665,211.884,83.785"/>
		<path style="fill:#54C9FD;" d="M259.491,199.658c0-44.912-15.27-68.267-23.354-77.249c-0.898-0.898-2.695-2.695-3.593-2.695
			c-0.898,6.288-7.186,44.014-44.912,44.014s-44.014-37.726-44.912-44.014c-1.796,0.898-2.695,1.796-3.593,2.695
			c-8.084,8.982-23.354,32.337-23.354,77.249c0,0-0.898,35.032,35.93,71.86l5.389,5.389c17.067,17.067,44.014,17.067,61.081,0
			l5.389-5.389C260.389,234.69,259.491,199.658,259.491,199.658"/>
	</g>
	<path d="M187.632,379.307C83.435,379.307-1,294.872-1,190.676S83.435,2.044,187.632,2.044s188.632,84.435,188.632,188.632
		S291.828,379.307,187.632,379.307z M187.632,20.009c-93.418,0-170.667,76.351-170.667,170.667s76.351,170.667,170.667,170.667
		s170.667-76.351,170.667-170.667S281.947,20.009,187.632,20.009z"/>
	<path d="M466.088,506.858c-11.677,0-23.354-4.491-31.439-13.474l-88.028-87.13c-7.186-7.186-7.186-17.965,0-25.151l-55.691-53.895
		l7.186-6.288c8.982-7.186,16.168-15.27,23.354-24.253l6.288-8.084l56.589,54.793c7.186-7.186,18.863-7.186,25.151,0l86.232,86.232
		c17.965,17.965,18.863,45.811,2.695,62.877C483.154,507.757,466.088,506.858,466.088,506.858z M316.979,328.107l41.319,40.421
		c3.593,3.593,5.389,8.084,5.389,12.575c0,4.491-1.797,8.982-5.389,12.575l88.028,88.028c5.389,5.389,11.677,8.084,19.761,8.084
		c7.186,0,14.372-3.593,19.761-8.982c8.982-10.779,8.084-27.846-2.695-38.625l-86.232-86.232c-7.186,7.186-17.965,7.186-25.151,0
		l-42.218-40.421C325.961,319.125,321.47,323.616,316.979,328.107z"/>
	<path d="M187.632,172.711c-39.523,0-52.098-35.032-53.895-52.996c0-14.372,8.084-27.846,23.354-42.218
		c17.067-16.168,44.014-16.168,61.979,0l0,0c14.372,14.372,22.456,27.846,22.456,41.319
		C239.73,137.679,227.154,172.711,187.632,172.711z M187.632,82.886c-6.288,0-13.474,2.695-18.863,7.186
		c-10.779,10.779-17.067,20.66-17.067,28.744c0,2.695,3.593,35.93,35.93,35.93c33.235,0,35.93-35.032,35.93-36.828
		c0-7.186-6.288-17.067-17.067-27.846l0,0C201.105,85.581,193.919,82.886,187.632,82.886z"/>
	<path d="M187.632,298.465c-13.474,0-26.947-5.389-36.828-15.27l-5.389-5.389c-39.523-39.523-38.625-77.249-38.625-78.147
		c0-46.709,16.168-71.86,25.151-82.639c1.796-2.695,4.491-3.593,7.186-5.389l10.779-4.491l1.796,11.677
		c0.898,8.084,6.288,35.93,35.93,35.93s35.032-27.846,35.93-35.93l1.797-11.677l10.779,4.491c2.695,0.898,5.389,2.695,7.186,5.389
		c8.982,10.779,25.151,35.93,25.151,82.639c0,3.593,0,40.421-38.625,78.147l-5.389,5.389
		C214.579,293.076,201.105,298.465,187.632,298.465z M138.228,138.578c-6.288,11.677-13.474,31.439-13.474,61.081
		c0,1.796,0,32.337,33.235,65.572l5.389,5.389c13.474,13.474,35.032,13.474,48.505,0l5.389-5.389
		c34.133-34.133,33.235-64.674,33.235-65.572l0,0c0-30.54-7.186-49.404-13.474-61.081c-7.186,17.965-22.456,34.133-49.404,34.133
		S145.414,156.543,138.228,138.578z"/>
	<path d="M160.684,91.869c-2.695,0-4.491-0.898-6.288-2.695l-17.965-17.965c-3.593-3.593-3.593-8.982,0-12.575
		c3.593-3.593,8.982-3.593,12.575,0l17.965,17.965c3.593,3.593,3.593,8.982,0,12.575C165.175,90.971,163.379,91.869,160.684,91.869z
		"/>
	<path d="M214.579,91.869c-2.695,0-4.491-0.898-6.288-2.695c-3.593-3.593-3.593-8.982,0-12.575l17.965-17.965
		c3.593-3.593,8.982-3.593,12.575,0c3.593,3.593,3.593,8.982,0,12.575l-17.965,17.965C219.07,90.971,217.274,91.869,214.579,91.869z
		"/>
	<path d="M124.754,154.746c-1.796,0-3.593-0.898-5.389-1.796l-24.253-16.168h-15.27c-5.389,0-8.982-3.593-8.982-8.982
		s3.593-8.982,8.982-8.982h20.66l29.642,19.761c4.491,2.695,5.389,8.084,2.695,12.575
		C130.144,152.95,127.449,154.746,124.754,154.746z"/>
	<path d="M61.877,226.606c-1.796,0-3.593-0.898-5.389-1.797c-4.491-2.695-5.389-8.084-2.695-12.575l21.558-30.54h40.421
		c5.389,0,8.982,3.593,8.982,8.982s-3.593,8.982-8.982,8.982H84.333l-15.27,23.354C67.267,224.809,64.572,226.606,61.877,226.606z"
		/>
	<path d="M88.825,289.483c-1.796,0-3.593-0.898-5.389-1.797c-4.491-2.695-5.389-8.084-2.695-12.575l20.66-30.54h32.337
		c5.389,0,8.982,3.593,8.982,8.982s-3.593,8.982-8.982,8.982h-22.456l-15.27,23.354C94.214,287.686,91.519,289.483,88.825,289.483z"
		/>
	<path d="M250.509,154.746c-2.695,0-5.389-1.796-7.186-3.593c-2.695-4.491-1.796-9.881,2.695-12.575l29.642-19.761h19.761
		c5.389,0,8.982,3.593,8.982,8.982s-3.593,8.982-8.982,8.982h-15.27l-24.253,16.168
		C254.102,153.848,252.305,154.746,250.509,154.746z"/>
	<path d="M313.386,226.606c-2.695,0-5.389-1.797-7.186-3.593l-15.27-23.354h-31.439c-5.389,0-8.982-3.593-8.982-8.982
		s3.593-8.982,8.982-8.982h40.421l20.66,30.54c2.695,4.491,1.796,9.881-2.695,12.575
		C316.979,225.707,315.182,226.606,313.386,226.606z"/>
	<path d="M286.439,289.483c-2.695,0-5.389-1.797-7.186-3.593l-15.27-23.354h-22.456c-5.389,0-8.982-3.593-8.982-8.982
		s3.593-8.982,8.982-8.982h31.439l20.66,30.54c2.695,4.491,1.797,9.881-2.695,12.575
		C290.032,288.585,288.235,289.483,286.439,289.483z"/>
	<path d="M413.989,472.725l-50.302-51.2l61.081-61.979l50.302,50.302L413.989,472.725z M388.839,424.22l25.151,25.151l36.828-37.726
		l-25.151-25.151L388.839,424.22z"/>
</g>
<g>
</g>
<g>
</g>
<g>
</g>
<g>
</g>
<g>
</g>
<g>
</g>
<g>
</g>
<g>
</g>
<g>
</g>
<g>
</g>
<g>
</g>
<g>
</g>
<g>
</g>
<g>
</g>
<g>
</g>
</svg>
