<?xml version="1.0" encoding="iso-8859-1"?>
<!-- Generator: Adobe Illustrator 18.0.0, SVG Export Plug-In . SVG Version: 6.00 Build 0)  -->
<!DOCTYPE svg PUBLIC "-//W3C//DTD SVG 1.1//EN" "http://www.w3.org/Graphics/SVG/1.1/DTD/svg11.dtd">
<svg version="1.1" id="Capa_1" xmlns="http://www.w3.org/2000/svg" xmlns:xlink="http://www.w3.org/1999/xlink" x="0px" y="0px"
	 viewBox="0 0 60 60" style="enable-background:new 0 0 60 60;" xml:space="preserve">
<g>
	<path d="M54.07,1H15.93C12.66,1,10,3.66,10,6.93V13h34.07c4.372,0,7.93,3.557,7.93,7.929V34h2.07c3.27,0,5.93-2.66,5.93-5.93V6.93
		C60,3.66,57.34,1,54.07,1z"/>
	<path d="M44.07,15H5.93C2.66,15,0,17.66,0,20.929V42.07C0,45.34,2.66,48,5.93,48H12v10c0,0.413,0.254,0.784,0.64,0.933
		C12.757,58.978,12.879,59,13,59c0.276,0,0.547-0.115,0.74-0.327L23.442,48H44.07c3.27,0,5.93-2.66,5.93-5.93V20.929
		C50,17.66,47.34,15,44.07,15z M12,25.015h14c0.553,0,1,0.448,1,1s-0.447,1-1,1H12c-0.553,0-1-0.448-1-1S11.447,25.015,12,25.015z
		 M39,39.015H12c-0.553,0-1-0.448-1-1s0.447-1,1-1h27c0.553,0,1,0.448,1,1S39.553,39.015,39,39.015z M39,33.015H12
		c-0.553,0-1-0.448-1-1s0.447-1,1-1h27c0.553,0,1,0.448,1,1S39.553,33.015,39,33.015z"/>
</g>
<g>
</g>
<g>
</g>
<g>
</g>
<g>
</g>
<g>
</g>
<g>
</g>
<g>
</g>
<g>
</g>
<g>
</g>
<g>
</g>
<g>
</g>
<g>
</g>
<g>
</g>
<g>
</g>
<g>
</g>
</svg>
