<?xml version="1.0" encoding="iso-8859-1"?>
<!-- Generator: Adobe Illustrator 18.0.0, SVG Export Plug-In . SVG Version: 6.00 Build 0)  -->
<!DOCTYPE svg PUBLIC "-//W3C//DTD SVG 1.1//EN" "http://www.w3.org/Graphics/SVG/1.1/DTD/svg11.dtd">
<svg xmlns="http://www.w3.org/2000/svg" xmlns:xlink="http://www.w3.org/1999/xlink" version="1.1" id="Capa_1" x="0px" y="0px" viewBox="0 0 297 297" style="enable-background:new 0 0 297 297;" xml:space="preserve" width="512px" height="512px">
<g>
	<path d="M206.927,94.904c-10.958,0-20.856,4.648-27.844,12.086c-6.988-7.438-16.887-12.086-27.846-12.086   c-21.124,0-38.31,17.268-38.31,38.491c0,34.704,54.657,67.561,60.891,71.193c1.627,0.948,3.445,1.423,5.266,1.423   c1.819,0,3.639-0.475,5.267-1.423c6.231-3.633,60.884-36.489,60.884-71.193C245.234,112.172,228.05,94.904,206.927,94.904z    M179.084,183.297c-19.363-12.352-45.241-34.179-45.241-49.901c0-9.691,7.804-17.576,17.395-17.576   c9.588,0,17.389,7.885,17.389,17.576c0,5.775,4.683,10.458,10.458,10.458c5.775,0,10.458-4.683,10.458-10.458   c0-9.691,7.798-17.576,17.385-17.576c9.59,0,17.392,7.885,17.392,17.576C224.318,149.117,198.444,170.944,179.084,183.297z" fill="#006DF0"/>
	<path d="M297,53.596c0-5.775-4.683-10.457-10.458-10.457c-5.775,0-10.457,4.682-10.457,10.457c0,6.732-4.225,14.351-8.295,20.003   c-25.605-29.004-65.685-47.716-110.662-47.716c-10.207,0-20.355,0.967-30.259,2.881C108.703,8.881,80.762,8.628,79.481,8.628   h-0.003c-2.772,0-5.433,1.102-7.393,3.062c-1.962,1.962-3.064,4.622-3.064,7.396v34.173c-15.921,11.326-28.815,25.559-37.74,41.645   H10.458C4.683,94.904,0,99.587,0,105.361v86.277c0,5.774,4.683,10.457,10.458,10.457h20.821   c5.412,9.763,12.276,18.831,20.486,27.061v48.758c0,5.775,4.683,10.458,10.458,10.458h51.766c5.775,0,10.458-4.683,10.458-10.458   v-10.159c10.65,2.233,21.594,3.362,32.681,3.362c11.078,0,22.021-1.13,32.68-3.368v10.165c0,5.775,4.683,10.458,10.458,10.458   h51.766c5.775,0,10.458-4.683,10.458-10.458v-48.741C284.779,206.825,297,178.347,297,148.5c0-20.733-5.908-40.276-16.315-57.416   C286.685,83.943,297,69.375,297,53.596z M244.891,217.102c-2.115,1.979-3.316,4.744-3.316,7.641v42.715h-30.851v-13.188   c0-3.316-1.573-6.437-4.239-8.408c-2.667-1.973-6.109-2.563-9.282-1.591c-12.849,3.937-26.331,5.932-40.074,5.932   c-13.76,0-27.242-1.993-40.075-5.925c-3.171-0.971-6.614-0.38-9.281,1.591c-2.667,1.973-4.24,5.092-4.24,8.408v13.182h-30.85   v-42.73c0-2.895-1.201-5.662-3.316-7.64c-9.499-8.881-17.003-18.969-22.304-29.983c-1.742-3.621-5.404-5.923-9.423-5.923H20.915   v-65.361h16.724c4.018,0,7.681-2.302,9.423-5.923c8.031-16.689,21.215-31.333,38.124-42.345c2.964-1.931,4.751-5.228,4.751-8.764   v-27.72c7.687,1.869,17.856,6.019,24.214,15.223c2.452,3.548,6.833,5.225,11.028,4.228c4.78-1.138,9.646-2.006,14.561-2.623   c-1.069,1.641-1.697,3.596-1.697,5.7c0,5.775,4.683,10.458,10.458,10.458h34.511c5.775,0,10.457-4.683,10.457-10.458   c0-0.682-0.069-1.347-0.194-1.992c47.974,13.111,82.812,51.588,82.812,96.896C276.085,173.94,265.007,198.304,244.891,217.102z" fill="#006DF0"/>
	<path d="M79.476,112.159c-2.75,0-5.438,1.118-7.394,3.063c-1.945,1.946-3.063,4.645-3.063,7.395s1.118,5.448,3.063,7.393   c1.945,1.945,4.644,3.065,7.394,3.065c2.761,0,5.448-1.12,7.393-3.065c1.956-1.944,3.065-4.643,3.065-7.393   s-1.109-5.448-3.065-7.395C84.924,113.277,82.226,112.159,79.476,112.159z" fill="#006DF0"/>
</g>
<g>
</g>
<g>
</g>
<g>
</g>
<g>
</g>
<g>
</g>
<g>
</g>
<g>
</g>
<g>
</g>
<g>
</g>
<g>
</g>
<g>
</g>
<g>
</g>
<g>
</g>
<g>
</g>
<g>
</g>
</svg>
